<mxfile host="www.draw.io" modified="2020-01-19T04:47:07.973Z" agent="Mozilla/5.0 (Windows NT 10.0; Win64; x64) AppleWebKit/537.36 (KHTML, like Gecko) Chrome/79.0.3945.117 Safari/537.36" etag="aIEQVxkWCOtEvIi6h9do" version="12.5.5" type="github">
  <diagram id="laQQ3qd4uRu_aECLLki4" name="ページ1">
    <mxGraphModel dx="862" dy="401" grid="1" gridSize="10" guides="1" tooltips="1" connect="1" arrows="1" fold="1" page="1" pageScale="1" pageWidth="690" pageHeight="980" math="0" shadow="0">
      <root>
        <mxCell id="0"/>
        <mxCell id="1" parent="0"/>
        <mxCell id="qGNr-YGiCR4AfSr9Ev_0-1" value="" style="rounded=0;whiteSpace=wrap;html=1;fontFamily=Helvetica;fontSize=13;fillColor=#ffcc99;strokeColor=#36393d;opacity=40;" vertex="1" parent="1">
          <mxGeometry x="191" y="233" width="150" height="207" as="geometry"/>
        </mxCell>
        <mxCell id="qGNr-YGiCR4AfSr9Ev_0-2" value="" style="group;fontSize=11;" vertex="1" connectable="0" parent="1">
          <mxGeometry x="160" y="190" width="60" height="50" as="geometry"/>
        </mxCell>
        <mxCell id="qGNr-YGiCR4AfSr9Ev_0-3" value="" style="group;fontSize=11;" vertex="1" connectable="0" parent="qGNr-YGiCR4AfSr9Ev_0-2">
          <mxGeometry width="50" height="40" as="geometry"/>
        </mxCell>
        <mxCell id="qGNr-YGiCR4AfSr9Ev_0-4" value="/var/lib&lt;br&gt;/container" style="rounded=0;whiteSpace=wrap;html=1;fontFamily=Helvetica;fontSize=11;" vertex="1" parent="qGNr-YGiCR4AfSr9Ev_0-3">
          <mxGeometry y="10" width="50" height="30" as="geometry"/>
        </mxCell>
        <mxCell id="qGNr-YGiCR4AfSr9Ev_0-5" value="" style="shape=trapezoid;perimeter=trapezoidPerimeter;whiteSpace=wrap;html=1;fontFamily=メイリオ;fontSize=11;fillColor=#f5f5f5;strokeColor=#666666;fontColor=#333333;" vertex="1" parent="qGNr-YGiCR4AfSr9Ev_0-3">
          <mxGeometry width="20" height="10" as="geometry"/>
        </mxCell>
        <mxCell id="qGNr-YGiCR4AfSr9Ev_0-6" value="" style="endArrow=none;html=1;fontFamily=Helvetica;fontSize=11;entryX=0;entryY=0.5;entryDx=0;entryDy=0;" edge="1" parent="1">
          <mxGeometry width="50" height="50" relative="1" as="geometry">
            <mxPoint x="180.5" y="259.6600000000001" as="sourcePoint"/>
            <mxPoint x="204.5" y="259.6600000000001" as="targetPoint"/>
          </mxGeometry>
        </mxCell>
        <mxCell id="qGNr-YGiCR4AfSr9Ev_0-7" value="" style="group;fontSize=11;" vertex="1" connectable="0" parent="1">
          <mxGeometry x="205.5" y="235" width="60" height="50" as="geometry"/>
        </mxCell>
        <mxCell id="qGNr-YGiCR4AfSr9Ev_0-8" value="" style="group;fontSize=11;" vertex="1" connectable="0" parent="qGNr-YGiCR4AfSr9Ev_0-7">
          <mxGeometry width="50" height="40" as="geometry"/>
        </mxCell>
        <mxCell id="qGNr-YGiCR4AfSr9Ev_0-9" value="&lt;font style=&quot;font-size: 11px&quot;&gt;test/&lt;/font&gt;" style="rounded=0;whiteSpace=wrap;html=1;fontFamily=Helvetica;fontSize=11;" vertex="1" parent="qGNr-YGiCR4AfSr9Ev_0-8">
          <mxGeometry y="10" width="50" height="30" as="geometry"/>
        </mxCell>
        <mxCell id="qGNr-YGiCR4AfSr9Ev_0-10" value="" style="shape=trapezoid;perimeter=trapezoidPerimeter;whiteSpace=wrap;html=1;fontFamily=メイリオ;fontSize=11;fillColor=#f5f5f5;strokeColor=#666666;fontColor=#333333;" vertex="1" parent="qGNr-YGiCR4AfSr9Ev_0-8">
          <mxGeometry width="20" height="10" as="geometry"/>
        </mxCell>
        <mxCell id="qGNr-YGiCR4AfSr9Ev_0-11" value="" style="endArrow=none;html=1;fontFamily=Helvetica;fontSize=11;entryX=0.5;entryY=1;entryDx=0;entryDy=0;" edge="1" parent="1">
          <mxGeometry width="50" height="50" relative="1" as="geometry">
            <mxPoint x="180" y="260" as="sourcePoint"/>
            <mxPoint x="180" y="230" as="targetPoint"/>
          </mxGeometry>
        </mxCell>
        <mxCell id="qGNr-YGiCR4AfSr9Ev_0-12" value="" style="endArrow=none;html=1;fontFamily=Helvetica;fontSize=11;entryX=0.25;entryY=1;entryDx=0;entryDy=0;" edge="1" parent="1">
          <mxGeometry width="50" height="50" relative="1" as="geometry">
            <mxPoint x="225" y="415" as="sourcePoint"/>
            <mxPoint x="225.5" y="275" as="targetPoint"/>
          </mxGeometry>
        </mxCell>
        <mxCell id="qGNr-YGiCR4AfSr9Ev_0-13" value="" style="endArrow=none;html=1;fontFamily=Helvetica;fontSize=11;entryX=0;entryY=0.5;entryDx=0;entryDy=0;" edge="1" parent="1">
          <mxGeometry width="50" height="50" relative="1" as="geometry">
            <mxPoint x="225.5" y="309.5" as="sourcePoint"/>
            <mxPoint x="249.5" y="309.5" as="targetPoint"/>
          </mxGeometry>
        </mxCell>
        <mxCell id="qGNr-YGiCR4AfSr9Ev_0-14" value="" style="endArrow=none;html=1;fontFamily=Helvetica;fontSize=11;entryX=0;entryY=0.5;entryDx=0;entryDy=0;" edge="1" parent="1">
          <mxGeometry width="50" height="50" relative="1" as="geometry">
            <mxPoint x="225.5" y="359.5" as="sourcePoint"/>
            <mxPoint x="249.5" y="359.5" as="targetPoint"/>
          </mxGeometry>
        </mxCell>
        <mxCell id="qGNr-YGiCR4AfSr9Ev_0-15" value="" style="group;fontSize=11;" vertex="1" connectable="0" parent="1">
          <mxGeometry x="250.5" y="335" width="60" height="60" as="geometry"/>
        </mxCell>
        <mxCell id="qGNr-YGiCR4AfSr9Ev_0-16" value="" style="group;fontSize=11;" vertex="1" connectable="0" parent="qGNr-YGiCR4AfSr9Ev_0-15">
          <mxGeometry width="50" height="40" as="geometry"/>
        </mxCell>
        <mxCell id="qGNr-YGiCR4AfSr9Ev_0-17" value="&lt;font style=&quot;font-size: 11px;&quot;&gt;lib&lt;/font&gt;" style="rounded=0;whiteSpace=wrap;html=1;fontFamily=Helvetica;fontSize=11;" vertex="1" parent="qGNr-YGiCR4AfSr9Ev_0-16">
          <mxGeometry y="10" width="50" height="30" as="geometry"/>
        </mxCell>
        <mxCell id="qGNr-YGiCR4AfSr9Ev_0-18" value="" style="shape=trapezoid;perimeter=trapezoidPerimeter;whiteSpace=wrap;html=1;fontFamily=メイリオ;fontSize=11;fillColor=#f5f5f5;strokeColor=#666666;fontColor=#333333;" vertex="1" parent="qGNr-YGiCR4AfSr9Ev_0-16">
          <mxGeometry width="20" height="10" as="geometry"/>
        </mxCell>
        <mxCell id="qGNr-YGiCR4AfSr9Ev_0-19" value="" style="shape=trapezoid;perimeter=trapezoidPerimeter;whiteSpace=wrap;html=1;fontFamily=メイリオ;fontSize=11;fillColor=#f5f5f5;strokeColor=#666666;fontColor=#333333;" vertex="1" parent="1">
          <mxGeometry x="250.5" y="285" width="20" height="10" as="geometry"/>
        </mxCell>
        <mxCell id="qGNr-YGiCR4AfSr9Ev_0-20" value="&lt;font style=&quot;font-size: 11px&quot;&gt;bin&lt;/font&gt;" style="rounded=0;whiteSpace=wrap;html=1;fontFamily=Helvetica;fontSize=11;" vertex="1" parent="1">
          <mxGeometry x="250.5" y="295" width="50" height="30" as="geometry"/>
        </mxCell>
        <mxCell id="qGNr-YGiCR4AfSr9Ev_0-21" value="" style="shape=trapezoid;perimeter=trapezoidPerimeter;whiteSpace=wrap;html=1;fontFamily=メイリオ;fontSize=11;fillColor=#f5f5f5;strokeColor=#666666;fontColor=#333333;" vertex="1" parent="1">
          <mxGeometry x="250.5" y="390" width="20" height="10" as="geometry"/>
        </mxCell>
        <mxCell id="qGNr-YGiCR4AfSr9Ev_0-22" value="" style="endArrow=none;html=1;fontFamily=Helvetica;fontSize=11;entryX=0;entryY=0.5;entryDx=0;entryDy=0;" edge="1" parent="1">
          <mxGeometry width="50" height="50" relative="1" as="geometry">
            <mxPoint x="225.5" y="414.5" as="sourcePoint"/>
            <mxPoint x="249.5" y="414.5" as="targetPoint"/>
          </mxGeometry>
        </mxCell>
        <mxCell id="qGNr-YGiCR4AfSr9Ev_0-23" value="&lt;font style=&quot;font-size: 11px&quot;&gt;lib64&lt;/font&gt;" style="rounded=0;whiteSpace=wrap;html=1;fontFamily=Helvetica;fontSize=11;" vertex="1" parent="1">
          <mxGeometry x="250.5" y="400" width="50" height="30" as="geometry"/>
        </mxCell>
        <mxCell id="qGNr-YGiCR4AfSr9Ev_0-24" value="実行環境" style="rounded=0;whiteSpace=wrap;html=1;fillColor=#f5f5f5;strokeColor=#666666;fontColor=#333333;fontSize=13;" vertex="1" parent="1">
          <mxGeometry x="262.5" y="239" width="74.5" height="25" as="geometry"/>
        </mxCell>
      </root>
    </mxGraphModel>
  </diagram>
</mxfile>
